PathFileType	4	(X/Y/Z)	D:\telocate\uwb05-Unnamed.trc
DataRate	CameraRate	NumFrames	NumMarkers	Units	OrigDataRate	OrigDataStartFrame	OrigNumFrames
100.00	100.00	      143	0	mm	100.00	5147	      8235
Frame#	Time	
		

5147	51.460				2808.55908	1684.28528	1086.26038	
5148	51.470				2797.74219	1688.48706	1086.91980	
5149	51.480				2786.09326	1691.84399	1087.20947	
5150	51.490				2774.83179	1694.87207	1088.56104	
5151	51.500				2763.17041	1698.42139	1089.35974	
5152	51.510				2752.53735	1702.05420	1090.30969	
5153	51.520				2741.73364	1705.44849	1091.89331	
5154	51.530				2731.18774	1708.30505	1093.06201	
5155	51.540				2719.71118	1710.89636	1094.32947	
5156	51.550				2708.91553	1714.23486	1094.94373	
5157	51.560				2697.00171	1717.17725	1095.75989	
5158	51.570				2685.57642	1719.98804	1096.43567	
5159	51.580				2674.40845	1723.23511	1097.19678	
5160	51.590				2663.07959	1726.18164	1097.62292	
5161	51.600				2651.21704	1728.84387	1097.95276	
5162	51.610				2640.47729	1731.51184	1098.71130	
5163	51.620				2629.47266	1734.46387	1099.47217	
5164	51.630				2618.00220	1737.14771	1098.92285	
5165	51.640				2607.23657	1739.82520	1099.97595	
5166	51.650				2594.39209	1741.64294	1100.30835	
5167	51.660				2582.42407	1743.73743	1100.50342	
5168	51.670				2572.18188	1746.14160	1100.45459	
5169	51.680				2561.50122	1748.40784	1100.31824	
5170	51.690				2552.43701	1751.47107	1101.41626	
5171	51.700				2539.88696	1752.80054	1103.04651	
5172	51.710				2528.72803	1754.27039	1102.88159	
5173	51.720				2517.65234	1756.12366	1103.47827	
5174	51.730				2509.20020	1758.84692	1104.08850	
5175	51.740				2495.39575	1759.72400	1104.65747	
5176	51.750				2483.77148	1761.47839	1104.47668	
5177	51.760				2472.63647	1762.54419	1104.11279	
5178	51.770				2463.31836	1765.09082	1103.90881	
5179	51.780				2448.43921	1765.57031	1103.70288	
5180	51.790				2437.34619	1767.72192	1103.47119	
5181	51.800				2425.41235	1769.49927	1103.57642	
5182	51.810				2413.04858	1771.30933	1103.27075	
5183	51.820				2399.92334	1772.17346	1102.25208	
5184	51.830				2387.56934	1773.61523	1102.10449	
5185	51.840				2377.94360	1776.04919	1101.81018	
5186	51.850				2362.73779	1776.29468	1101.35144	
5187	51.860				2351.23267	1777.93042	1101.20410	
5188	51.870				2338.83008	1779.28015	1100.84985	
5189	51.880				2327.79419	1780.51416	1099.84961	
5190	51.890				2313.79712	1781.54907	1099.25244	
5191	51.900				2302.11304	1782.84363	1099.54504	
5192	51.910				2292.13745	1784.42578	1098.72778	
5193	51.920				2278.11133	1784.84656	1097.43127	
5194	51.930				2266.91138	1786.69177	1098.44055	
5195	51.940				2255.48389	1787.35547	1097.20313	
5196	51.950				2244.48267	1788.63025	1096.95715	
5197	51.960				2231.83398	1789.59521	1097.16882	
5198	51.970				2223.94751	1791.06946	1097.02368	
5199	51.980				2211.60474	1792.18872	1097.25439	
5200	51.990				2203.94653	1793.72156	1096.52771	
5201	52.000				2193.06421	1794.20313	1096.92029	
5202	52.010				2182.40698	1795.75427	1098.45520	
5203	52.020				2173.89355	1796.62158	1097.66028	
5204	52.030				2162.14526	1797.34961	1099.58899	
5205	52.040				2155.05298	1798.26868	1100.37683	
5206	52.050				2144.04517	1798.91650	1102.04272	
5207	52.060				2136.29614	1800.42993	1102.56909	
5208	52.070				2125.39697	1800.65857	1103.41077	
5209	52.080				2117.11450	1801.58667	1105.21191	
5210	52.090				2108.86401	1803.37048	1106.78772	
5211	52.100				2096.49585	1803.59790	1108.46533	
5212	52.110				2089.99683	1805.55444	1110.44580	
5213	52.120				2081.14648	1806.68262	1112.38049	
5214	52.130				2072.25146	1806.73816	1113.93225	
5215	52.140				2064.47412	1808.30676	1116.14246	
5216	52.150				2055.26465	1808.89990	1118.00635	
5217	52.160				2046.55933	1809.89355	1119.50964	
5218	52.170				2038.43457	1811.10498	1121.07068	
5219	52.180				2027.06030	1811.98511	1123.07324	
5220	52.190				2019.51245	1813.30383	1124.77039	
5221	52.200				2009.05823	1814.02405	1125.62488	
5222	52.210				2000.63440	1815.81812	1127.24121	
5223	52.220				1991.83313	1816.75757	1128.79700	
5224	52.230				1980.57654	1817.30200	1128.65686	
5225	52.240				1971.42041	1818.67639	1129.82117	
5226	52.250				1960.44446	1818.69873	1130.08801	
5227	52.260				1950.81213	1820.42310	1131.10535	
5228	52.270				1938.44678	1821.08167	1130.65198	
5229	52.280				1930.09363	1822.18140	1130.06238	
5230	52.290				1915.46021	1822.82104	1130.26135	
5231	52.300				1906.15161	1824.14856	1130.30823	
5232	52.310				1893.42395	1825.04407	1129.95813	
5233	52.320				1881.89746	1825.53955	1128.77856	
5234	52.330				1870.99060	1827.13708	1128.87195	
5235	52.340				1858.41931	1827.57483	1128.29980	
5236	52.350				1846.01074	1828.33313	1127.18982	
5237	52.360				1831.62720	1828.64771	1126.52039	
5238	52.370				1820.27368	1830.11560	1125.56152	
5239	52.380				1805.83594	1830.19153	1125.15540	
5240	52.390				1794.19336	1830.58289	1123.79150	
5241	52.400				1784.00012	1832.10352	1123.35364	
5242	52.410				1769.05518	1832.50989	1122.42883	
5243	52.420				1757.94104	1833.80920	1122.59045	
5244	52.430				1744.29541	1834.25024	1120.72253	
5245	52.440				1733.58838	1834.77734	1119.90784	
5246	52.450				1719.84546	1835.80554	1118.81958	
5247	52.460				1706.65271	1836.24597	1118.08215	
5248	52.470				1692.03589	1837.47913	1116.77209	
5249	52.480				1679.10352	1838.23792	1116.28540	
5250	52.490				1666.02490	1838.92981	1115.89856	
5251	52.500				1654.17590	1840.12451	1114.97339	
5252	52.510				1639.61096	1840.46497	1114.26709	
5253	52.520				1628.09888	1841.29077	1113.02258	
5254	52.530				1616.75427	1842.91479	1112.32629	
5255	52.540				1604.20508	1843.87524	1113.13196	
5256	52.550				1591.57153	1845.01111	1112.44531	
5257	52.560				1579.68445	1846.47412	1112.36279	
5258	52.570				1569.55017	1848.16370	1113.23474	
5259	52.580				1554.56458	1848.81055	1113.33411	
5260	52.590				1543.04822	1849.86707	1113.52319	
5261	52.600				1532.37061	1851.17371	1113.70398	
5262	52.610				1521.98303	1852.73413	1115.16675	
5263	52.620				1507.75696	1853.23291	1115.27185	
5264	52.630				1496.78101	1854.13330	1116.34290	
5265	52.640				1484.59839	1855.50549	1116.55908	
5266	52.650				1472.76514	1856.97571	1117.57642	
5267	52.660				1460.77576	1856.90234	1118.65637	
5268	52.670				1449.76172	1858.06567	1119.60303	
5269	52.680				1437.03894	1857.92859	1120.35803	
5270	52.690				1425.77820	1858.49670	1121.16833	
5271	52.700				1415.33948	1859.31836	1121.99011	
5272	52.710				1405.73792	1860.67163	1122.31042	
5273	52.720				1394.47937	1861.50366	1123.68896	
5274	52.730				1382.03589	1861.17395	1125.03687	
5275	52.740				1371.40088	1861.31079	1126.01575	
5276	52.750				1361.77405	1862.65674	1126.43970	
5277	52.760				1350.71851	1862.95483	1127.39783	
5278	52.770				1337.51660	1862.40247	1128.28687	
5279	52.780				1325.45105	1861.89783	1128.56213	
5280	52.790				1315.37756	1862.81262	1127.82410	
5281	52.800				1300.74023	1862.20569	1128.17383	
5282	52.810				1289.15173	1862.39014	1128.10046	
5283	52.820				1279.68140	1863.96680	1129.91455	
5284	52.830	1273.13318	1867.65356	1130.98364	
5285	52.840	1258.28467	1864.73474	1128.28137	
5286	52.850	1245.55872	1864.60791	1128.11804	
5287	52.860	1233.00818	1863.72998	1127.38647	
5288	52.870	1218.60962	1863.44482	1127.42090	
5289	52.880	1206.95288	1862.65625	1125.86731	
